<mxfile host="app.diagrams.net" modified="2024-05-29T14:44:51.869Z" agent="Mozilla/5.0 (Macintosh; Intel Mac OS X 10_15_7) AppleWebKit/537.36 (KHTML, like Gecko) Chrome/124.0.0.0 Safari/537.36" etag="cTC7EbiicURw4mjPazFi" version="24.4.9" type="github">
  <diagram name="Seite-1" id="_0gGjwCuSNrb191eSmka">
    <mxGraphModel dx="1224" dy="999" grid="1" gridSize="10" guides="1" tooltips="1" connect="1" arrows="1" fold="1" page="1" pageScale="1" pageWidth="827" pageHeight="1169" math="0" shadow="0">
      <root>
        <mxCell id="0" />
        <mxCell id="1" parent="0" />
        <mxCell id="Ou7hjCVGm3fmFucae1As-1" value="&lt;b&gt;&lt;font style=&quot;font-size: 16px;&quot;&gt;Frontend&lt;/font&gt;&lt;/b&gt;" style="rounded=1;whiteSpace=wrap;html=1;strokeWidth=2;fillColor=#e51400;fontColor=#ffffff;strokeColor=#B20000;" parent="1" vertex="1">
          <mxGeometry x="80" y="80" width="120" height="60" as="geometry" />
        </mxCell>
        <mxCell id="Ou7hjCVGm3fmFucae1As-2" value="&lt;b&gt;&lt;font style=&quot;font-size: 16px;&quot;&gt;Backend&lt;/font&gt;&lt;/b&gt;" style="rounded=1;whiteSpace=wrap;html=1;strokeWidth=2;fillColor=#a0522d;fontColor=#ffffff;strokeColor=#6D1F00;" parent="1" vertex="1">
          <mxGeometry x="640" y="80" width="120" height="60" as="geometry" />
        </mxCell>
        <mxCell id="Ou7hjCVGm3fmFucae1As-3" value="" style="endArrow=none;dashed=1;html=1;rounded=0;entryX=1;entryY=1;entryDx=0;entryDy=0;strokeWidth=2;" parent="1" target="Ou7hjCVGm3fmFucae1As-1" edge="1">
          <mxGeometry width="50" height="50" relative="1" as="geometry">
            <mxPoint x="200" y="720" as="sourcePoint" />
            <mxPoint x="440" y="490" as="targetPoint" />
          </mxGeometry>
        </mxCell>
        <mxCell id="Ou7hjCVGm3fmFucae1As-4" value="" style="endArrow=none;dashed=1;html=1;rounded=0;entryX=1;entryY=1;entryDx=0;entryDy=0;strokeWidth=2;" parent="1" edge="1">
          <mxGeometry width="50" height="50" relative="1" as="geometry">
            <mxPoint x="640" y="720" as="sourcePoint" />
            <mxPoint x="640" y="140" as="targetPoint" />
          </mxGeometry>
        </mxCell>
        <mxCell id="Ou7hjCVGm3fmFucae1As-5" value="" style="endArrow=classic;html=1;rounded=0;strokeWidth=3;" parent="1" edge="1">
          <mxGeometry width="50" height="50" relative="1" as="geometry">
            <mxPoint x="200" y="180" as="sourcePoint" />
            <mxPoint x="640" y="180" as="targetPoint" />
          </mxGeometry>
        </mxCell>
        <mxCell id="Ou7hjCVGm3fmFucae1As-6" value="&lt;font color=&quot;#ffffff&quot;&gt;1&lt;/font&gt;" style="ellipse;whiteSpace=wrap;html=1;aspect=fixed;fillColor=#fa6800;strokeColor=#C73500;fontColor=#000000;" parent="1" vertex="1">
          <mxGeometry x="210" y="140" width="30" height="30" as="geometry" />
        </mxCell>
        <mxCell id="Ou7hjCVGm3fmFucae1As-9" value="POST &lt;b&gt;/api/login&lt;/b&gt;&lt;div&gt;{user, pwd, authMethod}&amp;nbsp;&lt;/div&gt;" style="text;html=1;align=left;verticalAlign=middle;whiteSpace=wrap;rounded=0;" parent="1" vertex="1">
          <mxGeometry x="250" y="130" width="150" height="50" as="geometry" />
        </mxCell>
        <mxCell id="Ou7hjCVGm3fmFucae1As-10" value="" style="endArrow=classic;html=1;rounded=0;strokeWidth=3;" parent="1" edge="1">
          <mxGeometry width="50" height="50" relative="1" as="geometry">
            <mxPoint x="640" y="240" as="sourcePoint" />
            <mxPoint x="200" y="240" as="targetPoint" />
          </mxGeometry>
        </mxCell>
        <mxCell id="Ou7hjCVGm3fmFucae1As-11" value="&lt;font color=&quot;#ffffff&quot;&gt;3&lt;/font&gt;" style="ellipse;whiteSpace=wrap;html=1;aspect=fixed;fillColor=#fa6800;fontColor=#000000;strokeColor=#C73500;" parent="1" vertex="1">
          <mxGeometry x="210" y="200" width="30" height="30" as="geometry" />
        </mxCell>
        <mxCell id="Ou7hjCVGm3fmFucae1As-12" value="response includs&amp;nbsp;&lt;b&gt;token&lt;/b&gt; (HTTP Header) and &lt;b&gt;refresh_token&lt;/b&gt; (HttpOnly Cookie)" style="text;html=1;align=left;verticalAlign=middle;whiteSpace=wrap;rounded=0;" parent="1" vertex="1">
          <mxGeometry x="250" y="190" width="220" height="50" as="geometry" />
        </mxCell>
        <mxCell id="Ou7hjCVGm3fmFucae1As-15" value="" style="curved=1;endArrow=none;html=1;rounded=0;strokeWidth=2;endFill=0;startArrow=classic;startFill=1;" parent="1" edge="1">
          <mxGeometry width="50" height="50" relative="1" as="geometry">
            <mxPoint x="640" y="240" as="sourcePoint" />
            <mxPoint x="640" y="180" as="targetPoint" />
            <Array as="points">
              <mxPoint x="670" y="240" />
              <mxPoint x="690" y="230" />
              <mxPoint x="700" y="210" />
              <mxPoint x="690" y="180" />
            </Array>
          </mxGeometry>
        </mxCell>
        <mxCell id="Ou7hjCVGm3fmFucae1As-17" value="&lt;font color=&quot;#ffffff&quot;&gt;2&lt;/font&gt;" style="ellipse;whiteSpace=wrap;html=1;aspect=fixed;fillColor=#fa6800;fontColor=#000000;strokeColor=#C73500;" parent="1" vertex="1">
          <mxGeometry x="700" y="190" width="30" height="30" as="geometry" />
        </mxCell>
        <mxCell id="Ou7hjCVGm3fmFucae1As-18" value="authenticate with credentials&lt;div&gt;create tokens and save refresh_token in DB&lt;/div&gt;" style="text;html=1;align=left;verticalAlign=middle;whiteSpace=wrap;rounded=0;" parent="1" vertex="1">
          <mxGeometry x="740" y="180" width="210" height="50" as="geometry" />
        </mxCell>
        <mxCell id="Ou7hjCVGm3fmFucae1As-19" value="&lt;font style=&quot;font-size: 18px;&quot;&gt;&lt;b&gt;User login&lt;/b&gt;&lt;/font&gt;" style="text;html=1;align=center;verticalAlign=middle;whiteSpace=wrap;rounded=0;" parent="1" vertex="1">
          <mxGeometry x="100" y="190" width="60" height="30" as="geometry" />
        </mxCell>
        <mxCell id="Ou7hjCVGm3fmFucae1As-20" value="&lt;font style=&quot;font-size: 18px;&quot;&gt;&lt;b&gt;Access resource with expired token&lt;/b&gt;&lt;/font&gt;" style="text;html=1;align=center;verticalAlign=middle;whiteSpace=wrap;rounded=0;" parent="1" vertex="1">
          <mxGeometry x="80" y="340" width="100" height="30" as="geometry" />
        </mxCell>
        <mxCell id="Ou7hjCVGm3fmFucae1As-21" value="" style="endArrow=classic;html=1;rounded=0;strokeWidth=3;" parent="1" edge="1">
          <mxGeometry width="50" height="50" relative="1" as="geometry">
            <mxPoint x="200" y="330" as="sourcePoint" />
            <mxPoint x="640" y="330" as="targetPoint" />
          </mxGeometry>
        </mxCell>
        <mxCell id="Ou7hjCVGm3fmFucae1As-22" value="&lt;font color=&quot;#ffffff&quot;&gt;1&lt;/font&gt;" style="ellipse;whiteSpace=wrap;html=1;aspect=fixed;fillColor=#6a00ff;strokeColor=#3700CC;fontColor=#ffffff;" parent="1" vertex="1">
          <mxGeometry x="210" y="290" width="30" height="30" as="geometry" />
        </mxCell>
        <mxCell id="Ou7hjCVGm3fmFucae1As-23" value="GET/POST request with token in HTTP Header" style="text;html=1;align=left;verticalAlign=middle;whiteSpace=wrap;rounded=0;" parent="1" vertex="1">
          <mxGeometry x="250" y="280" width="150" height="50" as="geometry" />
        </mxCell>
        <mxCell id="Ou7hjCVGm3fmFucae1As-24" value="" style="curved=1;endArrow=none;html=1;rounded=0;strokeWidth=2;endFill=0;startArrow=classic;startFill=1;" parent="1" edge="1">
          <mxGeometry width="50" height="50" relative="1" as="geometry">
            <mxPoint x="640" y="390" as="sourcePoint" />
            <mxPoint x="640" y="330" as="targetPoint" />
            <Array as="points">
              <mxPoint x="670" y="390" />
              <mxPoint x="690" y="380" />
              <mxPoint x="700" y="360" />
              <mxPoint x="690" y="330" />
            </Array>
          </mxGeometry>
        </mxCell>
        <mxCell id="Ou7hjCVGm3fmFucae1As-25" value="" style="endArrow=classic;html=1;rounded=0;strokeWidth=3;" parent="1" edge="1">
          <mxGeometry width="50" height="50" relative="1" as="geometry">
            <mxPoint x="640" y="390" as="sourcePoint" />
            <mxPoint x="200" y="390" as="targetPoint" />
          </mxGeometry>
        </mxCell>
        <mxCell id="Ou7hjCVGm3fmFucae1As-26" value="&lt;font color=&quot;#ffffff&quot;&gt;3&lt;/font&gt;" style="ellipse;whiteSpace=wrap;html=1;aspect=fixed;fillColor=#6a00ff;fontColor=#ffffff;strokeColor=#3700CC;" parent="1" vertex="1">
          <mxGeometry x="210" y="350" width="30" height="30" as="geometry" />
        </mxCell>
        <mxCell id="Ou7hjCVGm3fmFucae1As-27" value="return 401 and Token Expired message" style="text;html=1;align=left;verticalAlign=middle;whiteSpace=wrap;rounded=0;" parent="1" vertex="1">
          <mxGeometry x="250" y="340" width="220" height="50" as="geometry" />
        </mxCell>
        <mxCell id="Ou7hjCVGm3fmFucae1As-28" value="&lt;font color=&quot;#ffffff&quot;&gt;2&lt;/font&gt;" style="ellipse;whiteSpace=wrap;html=1;aspect=fixed;fillColor=#6a00ff;fontColor=#ffffff;strokeColor=#3700CC;" parent="1" vertex="1">
          <mxGeometry x="700" y="340" width="30" height="30" as="geometry" />
        </mxCell>
        <mxCell id="Ou7hjCVGm3fmFucae1As-29" value="validate token&lt;div&gt;throw&amp;nbsp;AuthenticationException&lt;/div&gt;" style="text;html=1;align=left;verticalAlign=middle;whiteSpace=wrap;rounded=0;" parent="1" vertex="1">
          <mxGeometry x="740" y="330" width="210" height="50" as="geometry" />
        </mxCell>
        <mxCell id="Ou7hjCVGm3fmFucae1As-30" value="&lt;font style=&quot;font-size: 18px;&quot;&gt;&lt;b&gt;Token Refresh&lt;/b&gt;&lt;/font&gt;" style="text;html=1;align=center;verticalAlign=middle;whiteSpace=wrap;rounded=0;" parent="1" vertex="1">
          <mxGeometry x="100" y="489" width="60" height="30" as="geometry" />
        </mxCell>
        <mxCell id="Ou7hjCVGm3fmFucae1As-31" value="" style="endArrow=classic;html=1;rounded=0;strokeWidth=3;" parent="1" edge="1">
          <mxGeometry width="50" height="50" relative="1" as="geometry">
            <mxPoint x="200" y="479" as="sourcePoint" />
            <mxPoint x="640" y="479" as="targetPoint" />
          </mxGeometry>
        </mxCell>
        <mxCell id="Ou7hjCVGm3fmFucae1As-32" value="&lt;font color=&quot;#ffffff&quot;&gt;4&lt;/font&gt;" style="ellipse;whiteSpace=wrap;html=1;aspect=fixed;fillColor=#6a00ff;strokeColor=#3700CC;fontColor=#ffffff;" parent="1" vertex="1">
          <mxGeometry x="210" y="439" width="30" height="30" as="geometry" />
        </mxCell>
        <mxCell id="Ou7hjCVGm3fmFucae1As-33" value="POST /api/token/refresh" style="text;html=1;align=left;verticalAlign=middle;whiteSpace=wrap;rounded=0;" parent="1" vertex="1">
          <mxGeometry x="250" y="429" width="150" height="50" as="geometry" />
        </mxCell>
        <mxCell id="Ou7hjCVGm3fmFucae1As-34" value="" style="curved=1;endArrow=none;html=1;rounded=0;strokeWidth=2;endFill=0;startArrow=classic;startFill=1;" parent="1" edge="1">
          <mxGeometry width="50" height="50" relative="1" as="geometry">
            <mxPoint x="640" y="539" as="sourcePoint" />
            <mxPoint x="640" y="479" as="targetPoint" />
            <Array as="points">
              <mxPoint x="670" y="539" />
              <mxPoint x="690" y="529" />
              <mxPoint x="700" y="509" />
              <mxPoint x="690" y="479" />
            </Array>
          </mxGeometry>
        </mxCell>
        <mxCell id="Ou7hjCVGm3fmFucae1As-35" value="&lt;font color=&quot;#ffffff&quot;&gt;6&lt;/font&gt;" style="ellipse;whiteSpace=wrap;html=1;aspect=fixed;fillColor=#6a00ff;fontColor=#ffffff;strokeColor=#3700CC;" parent="1" vertex="1">
          <mxGeometry x="210" y="499" width="30" height="30" as="geometry" />
        </mxCell>
        <mxCell id="Ou7hjCVGm3fmFucae1As-36" value="response includes new&amp;nbsp;&lt;b&gt;token&lt;/b&gt;&amp;nbsp;(HTTP Header) and&amp;nbsp;&lt;b&gt;refresh_token&lt;/b&gt;&amp;nbsp;(HttpOnly Cookie)" style="text;html=1;align=left;verticalAlign=middle;whiteSpace=wrap;rounded=0;" parent="1" vertex="1">
          <mxGeometry x="250" y="489" width="250" height="50" as="geometry" />
        </mxCell>
        <mxCell id="Ou7hjCVGm3fmFucae1As-37" value="&lt;font color=&quot;#ffffff&quot;&gt;5&lt;/font&gt;" style="ellipse;whiteSpace=wrap;html=1;aspect=fixed;fillColor=#6a00ff;fontColor=#ffffff;strokeColor=#3700CC;" parent="1" vertex="1">
          <mxGeometry x="700" y="489" width="30" height="30" as="geometry" />
        </mxCell>
        <mxCell id="Ou7hjCVGm3fmFucae1As-38" value="verify request and send new token" style="text;html=1;align=left;verticalAlign=middle;whiteSpace=wrap;rounded=0;" parent="1" vertex="1">
          <mxGeometry x="740" y="479" width="210" height="50" as="geometry" />
        </mxCell>
        <mxCell id="Ou7hjCVGm3fmFucae1As-39" value="" style="endArrow=classic;html=1;rounded=0;strokeWidth=3;" parent="1" edge="1">
          <mxGeometry width="50" height="50" relative="1" as="geometry">
            <mxPoint x="640" y="539" as="sourcePoint" />
            <mxPoint x="200" y="539" as="targetPoint" />
          </mxGeometry>
        </mxCell>
        <mxCell id="Ou7hjCVGm3fmFucae1As-40" value="&lt;font style=&quot;font-size: 18px;&quot;&gt;&lt;b&gt;Access resource with new token&lt;/b&gt;&lt;/font&gt;" style="text;html=1;align=center;verticalAlign=middle;whiteSpace=wrap;rounded=0;" parent="1" vertex="1">
          <mxGeometry x="80" y="639" width="100" height="30" as="geometry" />
        </mxCell>
        <mxCell id="Ou7hjCVGm3fmFucae1As-41" value="" style="endArrow=classic;html=1;rounded=0;strokeWidth=3;" parent="1" edge="1">
          <mxGeometry width="50" height="50" relative="1" as="geometry">
            <mxPoint x="200" y="635" as="sourcePoint" />
            <mxPoint x="640" y="635" as="targetPoint" />
          </mxGeometry>
        </mxCell>
        <mxCell id="Ou7hjCVGm3fmFucae1As-42" value="&lt;font color=&quot;#ffffff&quot;&gt;7&lt;/font&gt;" style="ellipse;whiteSpace=wrap;html=1;aspect=fixed;fillColor=#6a00ff;strokeColor=#3700CC;fontColor=#ffffff;" parent="1" vertex="1">
          <mxGeometry x="210" y="595" width="30" height="30" as="geometry" />
        </mxCell>
        <mxCell id="Ou7hjCVGm3fmFucae1As-43" value="request with new token in HTTP Header" style="text;html=1;align=left;verticalAlign=middle;whiteSpace=wrap;rounded=0;" parent="1" vertex="1">
          <mxGeometry x="250" y="585" width="150" height="50" as="geometry" />
        </mxCell>
      </root>
    </mxGraphModel>
  </diagram>
</mxfile>
